HIERARCHY
ROOT Hips
{
	OFFSET 0.000000 0.000000 0.000000
	CHANNELS 6 Xposition Yposition Zposition Zrotation Yrotation Xrotation 
	JOINT LHipJoint
	{
		OFFSET 0.000000 0.000000 0.000000
		CHANNELS 3 Zrotation Yrotation Xrotation
		JOINT LeftUpLeg
		{
			OFFSET 1.363060 -1.794630 0.839290
			CHANNELS 3 Zrotation Yrotation Xrotation
			JOINT LeftLeg
			{
				OFFSET 2.448110 -6.726130 0.000000
				CHANNELS 3 Zrotation Yrotation Xrotation
				JOINT LeftFoot
				{
					OFFSET 2.562200 -7.039590 0.000000
					CHANNELS 3 Zrotation Yrotation Xrotation
					JOINT LeftToeBase
					{
						OFFSET 0.157640 -0.433110 2.322550
						CHANNELS 3 Zrotation Yrotation Xrotation
						End Site
						{
							OFFSET 0.000000 0.000000 0.000000
						}
					}
				}
			}
		}
	}
	JOINT RHipJoint
	{
		OFFSET 0.000000 0.000000 0.000000
		CHANNELS 3 Zrotation Yrotation Xrotation
		JOINT RightUpLeg
		{
			OFFSET -1.305520 -1.794630 0.839290
			CHANNELS 3 Zrotation Yrotation Xrotation
			JOINT RightLeg
			{
				OFFSET -2.542530 -6.985550 0.000000
				CHANNELS 3 Zrotation Yrotation Xrotation
				JOINT RightFoot
				{
					OFFSET -2.568260 -7.056230 0.000000
					CHANNELS 3 Zrotation Yrotation Xrotation
					JOINT RightToeBase
					{
						OFFSET -0.164730 -0.452590 2.363150
						CHANNELS 3 Zrotation Yrotation Xrotation
						End Site
						{
							OFFSET 0.000000 0.000000 0.000000
						}
					}
				}
			}
		}
	}
	JOINT LowerBack
	{
		OFFSET 0.000000 0.000000 0.000000
		CHANNELS 3 Zrotation Yrotation Xrotation
		JOINT Spine
		{
			OFFSET 0.028270 2.035590 -0.193380
			CHANNELS 3 Zrotation Yrotation Xrotation
			JOINT Spine1
			{
				OFFSET 0.056720 2.048850 -0.042750
				CHANNELS 3 Zrotation Yrotation Xrotation
				JOINT Neck
				{
					OFFSET 0.000000 0.000000 0.000000
					CHANNELS 3 Zrotation Yrotation Xrotation
					JOINT Neck1
					{
						OFFSET -0.054170 1.746240 0.172020
						CHANNELS 3 Zrotation Yrotation Xrotation
						JOINT Head
						{
							OFFSET 0.104070 1.761360 -0.123970
							CHANNELS 3 Zrotation Yrotation Xrotation
							End Site
							{
								OFFSET 0.000000 0.000000 0.000000
							}
						}
					}
				}
				JOINT LeftShoulder
				{
					OFFSET 0.000000 0.000000 0.000000
					CHANNELS 3 Zrotation Yrotation Xrotation
					JOINT LeftArm
					{
						OFFSET 3.362410 1.200890 -0.311210
						CHANNELS 3 Zrotation Yrotation Xrotation
						JOINT LeftForeArm
						{
							OFFSET 4.983000 -0.000000 -0.000000
							CHANNELS 3 Zrotation Yrotation Xrotation
							JOINT LeftHand
							{
								OFFSET 3.483560 -0.000000 -0.000000
								CHANNELS 3 Zrotation Yrotation Xrotation
								JOINT LeftFingerBase
								{
									OFFSET 0.000000 0.000000 0.000000
									CHANNELS 3 Zrotation Yrotation Xrotation
									JOINT LeftHandIndex1
									{
										OFFSET 0.715260 -0.000000 -0.000000
										CHANNELS 3 Zrotation Yrotation Xrotation
										End Site
										{
											OFFSET 0.000000 0.000000 0.000000
										}
									}
								}
								JOINT LThumb
								{
									OFFSET 0.000000 0.000000 0.000000
									CHANNELS 3 Zrotation Yrotation Xrotation
									End Site
									{
										OFFSET 0.000000 0.000000 0.000000
									}
								}
							}
						}
					}
				}
				JOINT RightShoulder
				{
					OFFSET 0.000000 0.000000 0.000000
					CHANNELS 3 Zrotation Yrotation Xrotation
					JOINT RightArm
					{
						OFFSET -3.136600 1.374050 -0.404650
						CHANNELS 3 Zrotation Yrotation Xrotation
						JOINT RightForeArm
						{
							OFFSET -5.241900 -0.000000 -0.000000
							CHANNELS 3 Zrotation Yrotation Xrotation
							JOINT RightHand
							{
								OFFSET -3.444170 -0.000000 -0.000000
								CHANNELS 3 Zrotation Yrotation Xrotation
								JOINT RightFingerBase
								{
									OFFSET 0.000000 0.000000 0.000000
									CHANNELS 3 Zrotation Yrotation Xrotation
									JOINT RightHandIndex1
									{
										OFFSET -0.622530 -0.000000 -0.000000
										CHANNELS 3 Zrotation Yrotation Xrotation
										End Site
										{
											OFFSET 0.000000 0.000000 0.000000
										}
									}
								}
								JOINT RThumb
								{
									OFFSET 0.000000 0.000000 0.000000
									CHANNELS 3 Zrotation Yrotation Xrotation
									End Site
									{
										OFFSET 0.000000 0.000000 0.000000
									}
								}
							}
						}
					}
				}
			}
		}
	}
}
MOTION
Frames: 12
Frame Time: 0.008333
4.643921 17.368802 0.480410 -171.195195 -79.577799 -169.166287 -11.279277 0.261800 -2.489710 -6.709870 20.890851 -19.707930 -2.591609 -1.229991 -5.432636 1.397139 11.381991 5.907471 2.912299 0.000000 -42.065700 9.035297 -0.578251 2.169832 4.487402 5.202072 -19.434800 2.662036 1.345037 -2.523418 0.267728 -1.619202 6.894440 -1.384800 -0.000000 -59.904500 0.721764 -0.940156 1.303754 -0.681800 -0.950312 -2.829265 -7.520248 -0.763014 -1.200808 8.492551 -9.837459 -1.720479 -3.351153 -0.309026 1.505364 0.000000 0.000000 0.000000 5.342462 0.461380 -0.205007 -64.772672 -11.336433 28.628152 -179.003229 -74.233541 179.978712 3.113584 -0.752230 -0.033324 -0.122310 0.538356 -0.000000 0.000000 0.000000 0.000000 0.000000 0.000000 0.000000 6.071020 -6.303604 -0.850634 78.478166 10.906550 35.759022 179.794388 74.043286 179.930096 -8.941319 4.961366 -0.441639 0.194502 -0.594363 -0.000000 0.000000 0.000000 0.000000 0.000000 0.000000 0.000000 
4.637518 17.368880 0.484528 -171.573299 -79.175768 -168.955350 -11.291921 0.314237 -2.487895 -6.742064 21.164606 -19.595044 -2.602493 -1.223438 -5.289237 1.411052 11.467859 5.760567 2.900300 0.000000 -42.015100 9.038138 -0.602424 2.251756 4.403717 5.314489 -19.341903 2.672660 1.346322 -2.546431 0.293535 -1.357278 6.970085 -1.296601 -0.000000 -60.013500 0.902389 -0.956730 1.176444 -0.675740 -0.987182 -2.819625 -7.644290 -0.794885 -1.074983 8.450961 -9.908627 -1.681119 -3.330681 -0.308282 1.519232 0.000000 0.000000 0.000000 5.373105 0.278417 -0.050553 -62.850316 -12.963233 29.034300 -178.966360 -74.718548 179.984850 2.415034 -0.533438 -0.020398 -0.112056 0.526715 -0.000000 0.000000 0.000000 0.000000 0.000000 0.000000 0.000000 6.042261 -6.399298 -0.854044 78.546203 11.104726 36.090350 179.805610 74.100263 179.930092 -8.913369 4.939073 -0.438354 0.192666 -0.594531 -0.000000 0.000000 0.000000 0.000000 0.000000 0.000000 0.000000 
4.630848 17.368878 0.489419 -171.943502 -78.763490 -168.759880 -11.306153 0.371446 -2.480827 -6.782048 21.449793 -19.478141 -2.614738 -1.218268 -5.161447 1.423903 11.549444 5.620798 2.888200 0.000000 -41.962700 9.040680 -0.628455 2.338364 4.319990 5.417699 -19.258786 2.684295 1.347357 -2.557243 0.321143 -1.087949 7.042531 -1.206800 -0.000000 -60.137400 1.090814 -0.975644 1.035509 -0.670776 -1.027882 -2.808536 -7.777226 -0.830004 -0.936351 8.425005 -9.989890 -1.650429 -3.302963 -0.307023 1.531147 0.000000 0.000000 0.000000 5.407303 0.088515 0.124980 -60.708310 -14.719736 29.412199 -178.941200 -75.219046 179.990850 1.705742 -0.288079 -0.009788 -0.101020 0.513350 -0.000000 0.000000 0.000000 0.000000 0.000000 0.000000 0.000000 6.012173 -6.503918 -0.859903 78.612601 11.306865 36.424583 179.817950 74.153967 179.930067 -8.887212 4.916497 -0.435267 0.190735 -0.594681 0.000000 0.000000 0.000000 0.000000 0.000000 0.000000 0.000000 
4.623965 17.368787 0.495144 -172.306178 -78.341659 -168.579323 -11.322090 0.432862 -2.470524 -6.828582 21.747066 -19.352265 -2.628184 -1.214442 -5.050939 1.435665 11.627292 5.488603 2.876200 0.000000 -41.910500 9.043111 -0.656124 2.428148 4.234690 5.512242 -19.179445 2.696644 1.348114 -2.560403 0.350047 -0.810199 7.113690 -1.114800 0.000000 -60.276601 1.279330 -0.996749 0.885040 -0.667912 -1.071624 -2.796808 -7.915357 -0.868082 -0.791731 8.418824 -10.079329 -1.625104 -3.267018 -0.305242 1.542056 0.000000 0.000000 0.000000 5.464715 -0.128984 0.317348 -58.358011 -16.564715 29.739639 -178.932932 -75.742015 179.996592 0.992924 -0.013255 -0.002199 -0.088582 0.498059 -0.000000 0.000000 0.000000 0.000000 0.000000 0.000000 0.000000 5.981030 -6.615682 -0.866278 78.671170 11.508530 36.756958 179.831433 74.205644 179.930009 -8.864229 4.893418 -0.432282 0.188730 -0.594735 -0.000000 0.000000 0.000000 0.000000 0.000000 0.000000 0.000000 
4.616872 17.368638 0.501739 -172.654424 -77.910851 -168.419034 -11.339570 0.497571 -2.457717 -6.880262 22.055507 -19.219230 -2.642601 -1.211795 -4.956301 1.446490 11.701953 5.363351 2.864400 0.000001 -41.857200 9.045183 -0.685275 2.520896 4.148421 5.600921 -19.102728 2.709656 1.348827 -2.560458 0.379743 -0.525981 7.187347 -1.020800 -0.000000 -60.430000 1.464800 -1.019668 0.726448 -0.667463 -1.117754 -2.783671 -8.056636 -0.908460 -0.639462 8.436165 -10.176224 -1.609088 -3.221351 -0.302792 1.550804 0.000000 0.000000 0.000000 5.547679 -0.356611 0.525832 -55.792235 -18.510819 30.018686 -178.943158 -76.304336 -179.998002 0.281003 0.297680 0.001772 -0.074716 0.480686 -0.000000 0.000000 0.000000 0.000000 0.000000 0.000000 0.000000 5.948865 -6.734384 -0.875187 78.717866 11.708702 37.083446 179.846384 74.251116 179.929939 -8.844065 4.868646 -0.429201 0.186606 -0.594580 -0.000000 0.000000 0.000000 0.000000 0.000000 0.000000 0.000000 
4.609781 17.368410 0.509308 -172.986805 -77.471787 -168.280880 -11.358362 0.564554 -2.444513 -6.935095 22.374105 -19.076474 -2.657619 -1.210034 -4.876292 1.456600 11.774817 5.243897 2.852800 -0.000000 -41.803900 9.047082 -0.715253 2.614790 4.060256 5.684889 -19.024049 2.723064 1.349493 -2.562283 0.409867 -0.235604 7.266324 -0.924700 0.000000 -60.597500 1.639783 -1.044839 0.564411 -0.669900 -1.165998 -2.769702 -8.195420 -0.951445 -0.485477 8.480382 -10.278616 -1.600980 -3.165244 -0.299652 1.557775 0.000000 0.000000 0.000000 5.679058 -0.603843 0.744134 -53.030264 -20.523170 30.234848 -178.974518 -76.918969 -179.992924 -0.431693 0.632614 0.001524 -0.058793 0.461618 -0.000000 0.000000 0.000000 0.000000 0.000000 0.000000 0.000000 5.916138 -6.858848 -0.885415 78.744836 11.906085 37.401551 179.862714 74.290224 179.929863 -8.827201 4.841004 -0.426121 0.184385 -0.594095 -0.000000 0.000000 0.000000 0.000000 0.000000 0.000000 0.000000 
4.602597 17.368289 0.517907 -173.289454 -77.026345 -168.174997 -11.378159 0.632650 -2.430376 -6.990705 22.699004 -18.930934 -2.672801 -1.208790 -4.805248 1.466407 11.846733 5.127182 2.841100 0.000000 -41.741201 9.048242 -0.746025 2.710056 3.973218 5.767286 -18.945121 2.737074 1.350434 -2.569281 0.440275 0.056452 7.355938 -0.827900 0.000001 -60.777200 1.807130 -1.071567 0.398913 -0.674534 -1.215803 -2.753213 -8.331272 -0.996121 -0.323204 8.552553 -10.384874 -1.608790 -3.097590 -0.295627 1.560591 0.000000 0.000000 0.000000 5.830751 -0.826373 0.975287 -50.030842 -22.658775 30.395300 -179.024736 -77.599520 -179.988180 -1.143930 0.990567 -0.003437 -0.041179 0.441175 -0.000000 0.000000 0.000000 0.000000 0.000000 0.000000 0.000000 5.883231 -6.989419 -0.901124 78.749193 12.101143 37.708570 179.880886 74.318251 179.929808 -8.811840 4.808360 -0.422646 0.181964 -0.593110 0.000000 0.000000 0.000000 0.000000 0.000000 0.000000 0.000000 
4.595629 17.368099 0.527581 -173.568843 -76.575046 -168.096038 -11.398574 0.700794 -2.419364 -7.044837 23.028848 -18.774569 -2.687629 -1.207674 -4.743719 1.476287 11.920907 5.013317 2.830100 0.000000 -41.679000 9.049490 -0.776122 2.802640 3.884673 5.847615 -18.857844 2.751132 1.351345 -2.585313 0.470722 0.352094 7.455857 -0.729400 -0.000000 -60.970400 1.951399 -1.102399 0.239068 -0.681885 -1.268168 -2.737548 -8.451484 -1.045210 -0.171887 8.654960 -10.493297 -1.622150 -3.019273 -0.290934 1.562256 0.000000 0.000000 0.000000 6.073168 -1.081727 1.200052 -46.878566 -24.783617 30.463742 -179.096231 -78.349015 -179.983639 -1.859932 1.319187 -0.012810 -0.020605 0.420896 -0.000000 0.000000 0.000000 0.000000 0.000000 0.000000 0.000000 5.849492 -7.125186 -0.915134 78.716895 12.294592 38.006825 179.899646 74.335595 179.929778 -8.800050 4.770164 -0.418876 0.179576 -0.591576 0.000000 0.000000 0.000000 0.000000 0.000000 0.000000 0.000000 
4.588832 17.368060 0.538451 -173.812866 -76.119313 -168.052208 -11.419233 0.767957 -2.410810 -7.095230 23.358602 -18.614877 -2.701590 -1.206175 -4.685353 1.486748 11.998503 4.899322 2.819400 0.000000 -41.609100 9.050323 -0.805110 2.892330 3.798116 5.928088 -18.765664 2.765556 1.352490 -2.611793 0.501092 0.647077 7.570593 -0.630800 -0.000000 -61.174100 2.077621 -1.137689 0.085394 -0.690495 -1.323649 -2.721780 -8.555011 -1.099110 -0.027786 8.785430 -10.601373 -1.646969 -2.930241 -0.285467 1.560999 0.000000 0.000000 0.000000 6.374673 -1.331658 1.418668 -43.528299 -26.935284 30.440308 -179.184045 -79.168784 -179.979335 -2.566383 1.602146 -0.025586 0.002136 0.401648 -0.000000 0.000000 0.000000 0.000000 0.000000 0.000000 0.000000 5.814105 -7.266165 -0.930233 78.646329 12.488444 38.297548 179.919009 74.338742 179.929807 -8.789301 4.725230 -0.414611 0.177156 -0.589379 0.000000 0.000000 0.000000 0.000000 0.000000 0.000000 0.000000 
4.582275 17.368107 0.550565 -174.021422 -75.659344 -168.041162 -11.439670 0.833261 -2.406359 -7.140276 23.684575 -18.451807 -2.714187 -1.203905 -4.627996 1.498387 12.082690 4.783659 2.809400 -0.000000 -41.535001 9.051095 -0.831768 2.976736 3.713302 6.009103 -18.667369 2.780160 1.353790 -2.649385 0.531459 0.940207 7.700479 -0.532200 0.000001 -61.388500 2.180117 -1.180043 -0.057095 -0.699500 -1.384054 -2.708339 -8.633681 -1.160744 0.097261 8.942416 -10.707589 -1.677826 -2.832041 -0.279401 1.558387 0.000000 0.000000 0.000000 6.767856 -1.603162 1.616997 -40.027989 -29.021005 30.306572 -179.284708 -80.051189 -179.975262 -3.250826 1.797397 -0.039357 0.026983 0.384780 -0.000000 0.000000 0.000000 0.000000 0.000000 0.000000 0.000000 5.776285 -7.411556 -0.941887 78.528381 12.685901 38.585440 179.937615 74.326332 179.929914 -8.779881 4.673555 -0.409750 0.174915 -0.586522 0.000000 0.000000 0.000000 0.000000 0.000000 0.000000 0.000000 
4.575953 17.368337 0.563947 -174.193081 -75.195041 -168.061629 -11.459538 0.896249 -2.406601 -7.179141 24.003286 -18.287220 -2.725009 -1.200478 -4.569456 1.511747 12.176099 4.665540 2.800600 0.000000 -41.456500 9.051923 -0.855073 3.054367 3.631279 6.090992 -18.564179 2.795041 1.355297 -2.697593 0.561882 1.230410 7.845899 -0.434200 -0.000000 -61.612300 2.258025 -1.232119 -0.185561 -0.707616 -1.451659 -2.698726 -8.682778 -1.232990 0.196876 9.122355 -10.810728 -1.712497 -2.726176 -0.272856 1.555058 0.000000 0.000000 0.000000 7.265017 -1.905159 1.785536 -36.405954 -30.975086 30.057561 -179.392447 -80.984615 -179.971497 -3.894451 1.875657 -0.051018 0.053230 0.371210 0.000000 0.000000 0.000000 0.000000 0.000000 0.000000 0.000000 5.734537 -7.560105 -0.947593 78.358828 12.892159 38.876871 179.954212 74.297332 179.930108 -8.771117 4.615120 -0.404493 0.173025 -0.583027 0.000000 0.000000 0.000000 0.000000 0.000000 0.000000 0.000000 
4.569837 17.368729 0.578610 -174.329772 -74.725245 -168.108824 -11.478476 0.956762 -2.411685 -7.212184 24.311438 -18.123532 -2.733796 -1.195619 -4.508310 1.527354 12.281200 4.543832 2.793301 -0.000000 -41.374200 9.052976 -0.873977 3.124229 3.552167 6.174280 -18.458894 2.810240 1.357050 -2.754915 0.592562 1.516799 8.007040 -0.336999 0.000000 -61.844600 2.311986 -1.296937 -0.298224 -0.713502 -1.529253 -2.694130 -8.699312 -1.318978 0.266875 9.321065 -10.910347 -1.749152 -2.614453 -0.265964 1.551532 0.000000 0.000000 0.000000 7.878103 -2.247085 1.917116 -32.702681 -32.726848 29.699869 -179.500698 -81.953129 -179.968162 -4.482078 1.820862 -0.057560 0.080035 0.361282 0.000000 0.000000 0.000000 0.000000 0.000000 0.000000 0.000000 5.688496 -7.710084 -0.945128 78.134619 13.114161 39.179123 179.967370 74.252113 179.930416 -8.762400 4.550754 -0.398737 0.171697 -0.578965 0.000000 0.000000 0.000000 0.000000 0.000000 0.000000 0.000000 
